<?xml version="1.0" encoding="UTF-8" standalone="no"?>
<svg
   xmlns:dc="http://purl.org/dc/elements/1.1/"
   xmlns:cc="http://creativecommons.org/ns#"
   xmlns:rdf="http://www.w3.org/1999/02/22-rdf-syntax-ns#"
   xmlns:svg="http://www.w3.org/2000/svg"
   xmlns="http://www.w3.org/2000/svg"
   viewBox="0 0 426.12 268.12"
   height="268.12"
   width="426.12"
   xml:space="preserve"
   id="svg2"
   version="1.1"><metadata
     id="metadata8"><rdf:RDF><cc:Work
         rdf:about=""><dc:format>image/svg+xml</dc:format><dc:type
           rdf:resource="http://purl.org/dc/dcmitype/StillImage" /></cc:Work></rdf:RDF></metadata><defs
     id="defs6" /><g
     transform="matrix(1.3333333,0,0,-1.3333333,0,268.12)"
     id="g10"><g
       transform="scale(0.1)"
       id="g12"><path
         id="path14"
         style="fill:#515257;fill-opacity:1;fill-rule:nonzero;stroke:none"
         d="m 1788.3,1208.88 v 0 h -351.45 v 0 h -9.36 v -474.2 l -208.28,208.269 0.02,0.02 -43.43,43.422 L 924.195,734.789 V 1208.88 H 862.797 V 673.379 647.672 h 61.117 0.281 v 0.277 l 251.585,251.59 251.71,-251.699 v -0.168 h 0.17 61.23 v 25.609 474.189 h 299.41 v 0 c 81.95,0 148.62,-66.67 148.62,-148.611 0,-80.519 -64.39,-146.25 -144.38,-148.5 h -160.93 v -61.41 0 -141.277 h 61.4 v 141.277 h 95.29 v -0.109 c 1.43,0 2.83,0.09 4.24,0.109 h 8.62 v 0.332 c 109.83,6.66 197.16,98.098 197.16,209.578 0,115.801 -94.22,210.021 -210.02,210.021" /><path
         id="path16"
         style="fill:#4b8ed2;fill-opacity:1;fill-rule:nonzero;stroke:none"
         d="m 862.797,2010.87 v -749.76 h 63.207 v 686.55 H 2269.86 V 710.871 H 1742.5 v -63.199 h 590.57 V 2010.87 H 862.797" /><path
         id="path18"
         style="fill:#515257;fill-opacity:1;fill-rule:nonzero;stroke:none"
         d="M 400.16,6 H 344.141 L 300.617,116.051 263.605,226.59 227.09,115.039 184.574,6 H 128.555 L 0,356.141 h 74.0273 l 82.5357,-252.602 85.031,252.602 h 43.019 l 87.532,-252.602 80.035,252.602 h 74.031 L 400.16,6" /><path
         id="path20"
         style="fill:#515257;fill-opacity:1;fill-rule:nonzero;stroke:none"
         d="M 811.844,5.5 V 147.059 H 639.773 V 5.5 H 573.75 v 350.141 h 66.023 V 208.082 h 172.071 v 147.559 h 65.523 V 5.5 h -65.523" /><path
         id="path22"
         style="fill:#515257;fill-opacity:1;fill-rule:nonzero;stroke:none"
         d="m 960.418,6 v 350.141 h 65.522 V 6 h -65.522" /><path
         id="path24"
         style="fill:#515257;fill-opacity:1;fill-rule:nonzero;stroke:none"
         d="m 1092.98,356.141 h 264.6 V 325.129 L 1176.01,68.5313 h 181.57 V 6 h -273.61 v 38.0195 l 177.57,251.6015 h -168.56 v 60.52" /><path
         id="path26"
         style="fill:#515257;fill-opacity:1;fill-rule:nonzero;stroke:none"
         d="m 1454.13,331.129 v -179.57 h 126.55 c 116.54,0 116.54,179.57 0,179.57 z m 0,-204.078 V 6 h -27.01 v 350.141 c 51.02,0 102.54,0 153.56,0 152.06,0 152.06,-229.09 0,-229.09 h -126.55" /><path
         id="path28"
         style="fill:#515257;fill-opacity:1;fill-rule:nonzero;stroke:none"
         d="m 1766.26,181.07 c 0.5,-79.031 50.52,-156.0583 150.06,-156.0583 100.04,0 150.57,77.0273 150.57,156.0583 0,81.032 -50.02,155.571 -150.57,155.571 -100.54,0 -150.56,-73.032 -150.06,-155.571 z m 326.63,-0.5 C 2092.4,88.5313 2033.87,0 1916.32,0 c -117.55,0 -176.57,89.0391 -176.57,181.57 0,94.039 58.52,180.078 176.57,180.078 118.05,0 177.07,-86.546 176.57,-181.078" /><path
         id="path30"
         style="fill:#515257;fill-opacity:1;fill-rule:nonzero;stroke:none"
         d="M 2196.45,356.141 V 31.5117 h 197.08 V 6 h -224.09 v 350.141 h 27.01" /><path
         id="path32"
         style="fill:#515257;fill-opacity:1;fill-rule:nonzero;stroke:none"
         d="m 2451.56,6 v 350.141 h 26.51 V 6 h -26.51" /><path
         id="path34"
         style="fill:#515257;fill-opacity:1;fill-rule:nonzero;stroke:none"
         d="M 2862.22,54.5313 C 2827.21,19.5117 2780.69,2 2734.67,2 2616.62,2 2555.1,84.5391 2554.6,179.07 c -1,93.532 60.02,181.071 180.07,181.071 46.02,0 92.54,-17.512 127.55,-52.52 l -18.51,-16 c -30.01,30.008 -69.52,44.52 -109.04,44.52 -102.04,0 -154.56,-72.032 -154.06,-156.071 1,-82.0309 53.03,-153.0583 154.06,-153.0583 39.52,0 79.53,15.0078 109.54,44.5196 l 18.01,-17" /><path
         id="path36"
         style="fill:#515257;fill-opacity:1;fill-rule:nonzero;stroke:none"
         d="m 3031.8,146.059 -136.55,209.582 v 0.5 h 31.51 l 118.55,-184.071 119.05,184.071 h 31.5 v -0.5 L 3058.81,146.059 V 6 h -27.01 v 140.059" /></g></g></svg>